<?xml version="1.0" standalone="no"?>
<!DOCTYPE svg PUBLIC "-//W3C//DTD SVG 20010904//EN"
 "http://www.w3.org/TR/2001/REC-SVG-20010904/DTD/svg10.dtd">
<svg version="1.0" xmlns="http://www.w3.org/2000/svg"
 width="256.000000pt" height="256.000000pt" viewBox="0 0 256.000000 256.000000"
 preserveAspectRatio="xMidYMid meet">

<g transform="translate(0.000000,256.000000) scale(0.100000,-0.100000)"
fill="#000000" stroke="none">
<path d="M1192 2428 c-31 -31 -3 -82 40 -76 32 4 39 48 7 48 -17 0 -19 -3 -10
-14 8 -10 9 -16 1 -21 -16 -10 -30 4 -30 30 0 24 25 41 35 24 4 -5 11 -7 16
-3 5 3 7 10 4 15 -9 13 -49 11 -63 -3z"/>
<path d="M1290 2395 c0 -25 5 -45 10 -45 6 0 10 20 10 45 0 25 -4 45 -10 45
-5 0 -10 -20 -10 -45z"/>
<path d="M1350 2399 c-12 -23 -18 -44 -14 -47 4 -4 9 -1 11 6 7 18 40 15 52
-5 5 -10 12 -15 15 -12 8 8 -24 99 -35 99 -5 0 -18 -18 -29 -41z m34 -4 c3 -8
1 -15 -4 -15 -6 0 -10 7 -10 15 0 8 2 15 4 15 2 0 6 -7 10 -15z"/>
<path d="M1047 2413 c-11 -11 -8 -58 5 -71 18 -18 46 -14 58 8 11 20 -3 30
-15 10 -9 -15 -32 -12 -39 5 -10 28 5 47 31 40 16 -4 22 -2 18 5 -7 11 -48 14
-58 3z"/>
<path d="M1450 2400 c-16 -29 -3 -59 27 -66 41 -11 71 44 41 74 -19 19 -56 14
-68 -8z m58 -18 c2 -13 -3 -25 -13 -28 -23 -9 -38 10 -30 36 9 27 39 22 43 -8z"/>
<path d="M936 2379 c-23 -34 -6 -64 35 -64 30 0 34 3 37 28 6 53 -43 77 -72
36z m57 -18 c5 -19 -9 -41 -25 -41 -12 0 -30 39 -23 50 11 17 42 11 48 -9z"/>
<path d="M1609 2381 c11 -7 11 -15 2 -41 -13 -40 -13 -40 -2 -40 5 0 15 16 21
34 8 24 16 33 26 29 8 -3 14 -1 14 5 0 10 -33 22 -60 22 -12 0 -13 -2 -1 -9z"/>
<path d="M873 2351 c3 -12 -1 -22 -10 -25 -21 -8 -23 -8 -23 9 0 8 -4 15 -10
15 -14 0 -13 -15 4 -55 17 -40 31 -47 22 -10 -5 20 -3 25 13 25 10 0 22 -7 25
-16 13 -34 17 -5 5 35 -12 40 -36 60 -26 22z"/>
<path d="M1677 2320 c-15 -38 -7 -56 11 -25 5 10 15 13 25 9 13 -5 14 -10 6
-25 -7 -13 -6 -19 1 -19 13 0 44 69 35 78 -4 4 -11 -1 -16 -10 -13 -23 -42
-12 -34 13 12 37 -12 18 -28 -21z"/>
<path d="M1830 2321 c0 -5 7 -11 14 -14 10 -4 13 -1 9 9 -6 15 -23 19 -23 5z"/>
<path d="M740 2300 c0 -18 30 -70 40 -70 6 0 1 18 -10 40 -20 40 -30 49 -30
30z"/>
<path d="M1786 2294 c-37 -37 -1 -98 43 -74 29 15 36 48 15 71 -21 23 -37 24
-58 3z m51 -20 c3 -8 -1 -23 -10 -31 -23 -23 -52 0 -36 28 12 23 37 25 46 3z"/>
<path d="M666 2261 c-4 -5 -4 -15 -2 -23 2 -7 7 -26 10 -41 4 -15 11 -25 16
-22 6 4 8 10 5 15 -7 12 26 28 45 23 8 -2 -1 10 -20 26 -36 33 -45 36 -54 22z
m34 -31 c0 -5 -2 -10 -4 -10 -3 0 -8 5 -11 10 -3 6 -1 10 4 10 6 0 11 -4 11
-10z"/>
<path d="M1153 2250 c-204 -29 -417 -134 -560 -277 -548 -549 -278 -1473 482
-1649 123 -29 320 -25 448 9 353 93 620 367 709 724 17 69 22 118 22 223 0
209 -46 362 -158 534 -170 262 -461 427 -776 440 -58 3 -133 1 -167 -4z m-52
-131 c130 -65 148 -71 218 -75 213 -14 379 -91 523 -243 87 -92 131 -162 169
-273 65 -192 56 -387 -27 -575 -28 -65 -28 -63 -9 -63 11 0 0 -22 -32 -70 -36
-52 -54 -69 -71 -70 -14 0 -48 -22 -84 -54 -66 -60 -188 -128 -282 -158 -91
-29 -281 -36 -382 -13 -142 31 -292 115 -394 219 -29 31 -53 46 -70 46 -20 0
-35 14 -73 70 -47 69 -48 70 -23 70 15 0 26 2 26 4 0 3 -14 47 -32 98 -41 120
-50 282 -23 405 20 94 81 227 135 300 29 37 40 62 40 86 0 47 23 108 64 170
40 60 163 197 177 197 5 0 73 -32 150 -71z"/>
<path d="M1225 1950 c-48 -9 -110 -73 -125 -131 -23 -86 14 -152 185 -329 133
-138 165 -186 165 -251 0 -37 -6 -47 -49 -88 -26 -25 -107 -86 -179 -136 -97
-67 -125 -91 -108 -93 62 -8 114 -26 138 -49 l26 -25 32 24 c31 23 37 23 290
26 l258 3 35 72 c51 104 70 185 70 302 0 362 -270 651 -633 678 -36 3 -83 1
-105 -3z"/>
<path d="M727 1663 c-62 -91 -117 -245 -117 -330 l0 -43 294 0 c249 0 295 2
306 15 10 12 8 20 -11 44 -23 29 -410 338 -434 347 -6 3 -23 -12 -38 -33z"/>
<path d="M610 1218 c0 -58 24 -149 59 -224 l29 -62 156 -7 c86 -4 159 -5 161
-3 4 4 -332 287 -387 326 -17 12 -18 10 -18 -30z"/>
<path d="M1196 1221 c-11 -4 -15 -10 -10 -13 10 -6 54 8 54 17 0 7 -21 5 -44
-4z"/>
<path d="M1075 1193 c-29 -7 -38 -18 -23 -30 9 -8 24 -7 51 4 59 24 40 42 -28
26z"/>
<path d="M913 1152 c-35 -8 -63 -18 -63 -22 0 -4 9 -15 19 -25 19 -16 23 -16
85 6 61 22 64 25 49 41 -9 10 -19 17 -22 17 -3 -1 -34 -8 -68 -17z"/>
<path d="M865 744 c51 -45 180 -109 265 -130 48 -12 94 -15 185 -12 102 4 132
9 202 36 45 16 108 47 140 69 l58 38 -60 6 c-33 4 -113 7 -179 8 -118 1 -118
1 -153 -29 -45 -40 -77 -39 -117 4 l-32 33 -174 7 -175 6 40 -36z"/>
<path d="M1881 2231 c-27 -38 -27 -64 0 -31 l20 25 -3 -34 c-4 -46 12 -48 40
-5 27 42 20 60 -10 24 l-20 -25 6 32 c7 43 -8 50 -33 14z"/>
<path d="M578 2202 c-20 -14 -23 -21 -16 -37 14 -32 45 -47 68 -35 22 12 25
31 10 59 -14 27 -34 31 -62 13z m42 -17 c14 -16 7 -45 -11 -45 -6 0 -9 7 -5
15 3 9 0 15 -9 15 -16 0 -20 12 -8 23 10 11 19 8 33 -8z"/>
<path d="M1972 2174 c-39 -27 -20 -91 25 -82 23 4 29 34 7 42 -12 4 -15 2 -10
-9 3 -9 0 -15 -8 -15 -21 0 -27 28 -10 45 21 20 29 19 48 -7 14 -20 16 -20 14
-4 -2 10 -12 25 -23 32 -18 12 -24 11 -43 -2z"/>
<path d="M462 2108 c-7 -7 -12 -19 -12 -28 0 -20 31 -50 52 -50 22 0 51 37 44
55 -7 19 -37 17 -44 -3 -2 -8 2 -10 14 -5 12 4 15 2 12 -8 -3 -8 -16 -14 -29
-14 -33 0 -38 37 -7 53 22 10 22 11 3 11 -12 1 -26 -4 -33 -11z"/>
<path d="M2081 2062 c-12 -23 -19 -47 -16 -52 6 -9 85 20 85 33 0 10 -18 9
-41 -3 -22 -12 -24 -7 -8 21 6 11 8 25 6 32 -2 7 -14 -7 -26 -31z"/>
<path d="M419 2020 l23 -20 -36 0 c-20 0 -36 -3 -35 -7 1 -14 60 -56 67 -48 4
3 -2 13 -12 21 -19 13 -18 14 10 14 17 0 33 3 37 6 8 8 -47 54 -64 54 -9 -1
-5 -8 10 -20z"/>
<path d="M2206 1995 c4 -8 8 -15 10 -15 2 0 4 7 4 15 0 8 -4 15 -10 15 -5 0
-7 -7 -4 -15z"/>
<path d="M2148 1986 c-44 -13 -59 -26 -31 -26 21 0 38 -24 28 -40 -3 -5 -1
-11 3 -14 12 -7 56 74 46 83 -5 4 -26 3 -46 -3z m22 -26 c0 -5 -2 -10 -4 -10
-3 0 -8 5 -11 10 -3 6 -1 10 4 10 6 0 11 -4 11 -10z"/>
<path d="M320 1937 c-14 -32 -8 -52 23 -71 25 -16 52 5 52 39 0 21 -8 33 -31
45 l-30 17 -14 -30z m60 -22 c16 -20 1 -39 -26 -33 -27 5 -32 48 -6 48 11 0
25 -7 32 -15z"/>
<path d="M2105 1920 c3 -5 8 -10 11 -10 2 0 4 5 4 10 0 6 -5 10 -11 10 -5 0
-7 -4 -4 -10z"/>
<path d="M2203 1907 c-32 -22 -42 -37 -24 -37 6 0 13 5 16 10 12 19 26 11 15
-9 -23 -45 -5 -53 42 -20 33 24 31 37 -3 19 -20 -11 -21 -10 -14 6 24 60 18
65 -32 31z"/>
<path d="M270 1865 c0 -9 13 -24 30 -33 32 -18 40 -42 15 -42 -9 0 -27 7 -40
16 -21 14 -25 14 -25 2 0 -15 40 -38 65 -38 12 0 35 28 35 44 0 2 -18 19 -40
36 -31 24 -40 28 -40 15z"/>
<path d="M2304 1795 c3 -10 -5 -20 -24 -30 -17 -9 -30 -20 -30 -26 0 -5 14 -2
31 6 24 13 34 14 45 4 17 -14 19 0 2 36 -12 26 -34 36 -24 10z"/>
<path d="M210 1731 c-16 -32 -12 -41 26 -57 40 -17 58 -11 29 10 -17 12 -16
14 13 24 38 13 43 26 8 20 -15 -3 -27 0 -30 8 -8 20 -34 17 -46 -5z m30 -16
c0 -8 -4 -15 -10 -15 -5 0 -10 7 -10 15 0 8 5 15 10 15 6 0 10 -7 10 -15z"/>
<path d="M2390 1690 c-13 -8 -12 -10 3 -10 9 0 17 5 17 10 0 12 -1 12 -20 0z"/>
<path d="M2280 1683 c23 -9 30 -25 23 -53 -5 -24 -4 -24 31 9 20 19 36 39 36
43 0 4 -24 8 -52 7 -29 0 -46 -3 -38 -6z m65 -13 c-3 -5 -10 -10 -16 -10 -5 0
-9 5 -9 10 0 6 7 10 16 10 8 0 12 -4 9 -10z"/>
<path d="M173 1630 c-11 -37 -7 -53 6 -31 6 9 19 10 46 5 25 -4 36 -3 32 3 -4
6 -20 13 -36 16 -17 4 -31 14 -34 24 -2 13 -7 7 -14 -17z"/>
<path d="M2341 1601 c-14 -4 -26 -12 -28 -18 -5 -13 65 2 82 18 10 10 -17 11
-54 0z"/>
<path d="M170 1210 c-31 -4 -35 -8 -35 -35 0 -25 4 -30 27 -33 15 -2 35 1 45
7 14 8 10 10 -24 11 -31 0 -43 4 -43 15 0 9 9 15 23 15 22 0 55 16 47 22 -3 2
-21 1 -40 -2z"/>
<path d="M2352 1193 c-5 -10 -7 -24 -5 -30 7 -20 41 -15 48 7 3 11 11 20 16
20 14 0 11 -28 -3 -33 -7 -2 -10 -8 -6 -12 12 -12 28 5 28 31 0 25 -31 47 -37
27 -2 -5 -11 -19 -19 -29 -15 -18 -15 -18 -9 9 6 31 0 35 -13 10z"/>
<path d="M2340 1121 c0 -6 12 -11 28 -12 l27 -1 -32 -14 c-33 -14 -44 -34 -19
-34 7 0 28 -3 46 -7 24 -4 31 -3 26 5 -4 7 -17 12 -29 13 -18 0 -16 3 12 15
39 17 32 29 -21 39 -25 5 -38 4 -38 -4z"/>
<path d="M158 1113 c-10 -2 -18 -8 -18 -13 0 -4 10 -6 23 -3 l22 6 -23 -25
c-13 -14 -20 -28 -15 -31 14 -8 83 5 83 15 0 6 -11 8 -26 5 l-25 -4 20 21 c12
12 21 25 21 29 0 8 -34 8 -62 0z"/>
<path d="M2326 1024 c-9 -8 -16 -21 -16 -28 0 -17 33 -46 51 -46 39 0 54 61
20 80 -27 14 -37 13 -55 -6z m54 -19 c15 -18 5 -35 -20 -35 -22 0 -34 15 -26
35 7 19 30 19 46 0z"/>
<path d="M178 1023 c-10 -2 -18 -9 -18 -13 0 -11 61 -1 75 11 9 9 -26 10 -57
2z"/>
<path d="M201 980 c-18 -16 -30 -33 -27 -39 9 -14 86 -15 86 -1 0 6 -15 10
-32 10 l-33 1 29 23 c15 13 24 26 20 29 -5 3 -24 -8 -43 -23z"/>
<path d="M2300 943 c0 -8 55 -33 73 -33 18 0 4 19 -17 24 -13 3 -31 9 -40 12
-9 3 -16 2 -16 -3z"/>
<path d="M223 904 c-30 -13 -31 -15 -22 -44 6 -16 15 -30 20 -30 6 0 5 8 -1
19 -13 26 -13 31 5 31 8 0 15 -7 15 -15 0 -8 5 -15 10 -15 6 0 8 12 4 28 l-6
27 21 -25 c23 -28 26 -24 11 14 -11 29 -13 30 -57 10z"/>
<path d="M2281 897 c-13 -34 -15 -58 -2 -38 7 11 15 11 41 2 40 -13 40 -13 40
-1 0 5 -12 13 -26 16 -14 4 -29 16 -34 28 -8 20 -8 20 -19 -7z"/>
<path d="M250 820 c-34 -19 -33 -24 3 -20 16 1 17 -2 8 -19 -16 -29 -14 -50 3
-28 7 9 23 17 35 17 15 0 21 6 21 23 0 21 -17 48 -29 47 -4 -1 -22 -9 -41 -20z
m54 -15 c3 -9 0 -15 -9 -15 -8 0 -15 7 -15 15 0 8 4 15 9 15 5 0 11 -7 15 -15z"/>
<path d="M2247 814 c-3 -4 6 -22 21 -40 28 -35 48 -45 38 -19 -8 22 4 45 23
45 14 0 14 2 1 10 -17 11 -73 13 -83 4z m43 -24 c0 -5 -2 -10 -4 -10 -3 0 -8
5 -11 10 -3 6 -1 10 4 10 6 0 11 -4 11 -10z"/>
<path d="M321 751 c-9 -6 -11 -18 -7 -36 5 -20 3 -26 -6 -22 -7 2 -12 12 -12
21 1 9 -2 16 -7 16 -15 0 -10 -37 6 -50 21 -18 44 3 37 35 -5 31 6 33 17 3 4
-12 10 -17 14 -11 11 17 -25 55 -42 44z"/>
<path d="M2212 748 c-35 -35 15 -99 53 -68 17 14 21 50 5 50 -5 0 -7 -7 -4
-15 9 -23 -25 -31 -44 -11 -16 16 -16 18 1 30 9 7 17 16 17 20 0 10 -15 7 -28
-6z"/>
<path d="M343 666 c-18 -13 -30 -26 -27 -29 7 -7 74 34 74 46 0 12 -13 7 -47
-17z"/>
<path d="M2160 676 c0 -8 71 -48 76 -43 7 7 -46 47 -62 47 -8 0 -14 -2 -14 -4z"/>
<path d="M395 650 c5 -9 -2 -21 -20 -36 -16 -13 -26 -26 -23 -30 4 -3 19 3 33
14 16 13 33 18 43 14 16 -6 16 -4 1 18 -16 25 -49 44 -34 20z"/>
<path d="M2160 629 l25 -21 -30 2 c-50 3 -51 0 -16 -30 38 -32 55 -32 27 -1
-17 19 -17 19 3 14 11 -3 28 -3 37 1 13 5 10 11 -14 31 -17 14 -36 25 -43 25
-8 -1 -4 -9 11 -21z"/>
<path d="M440 586 c0 -7 -9 -25 -20 -39 -21 -27 -11 -48 10 -22 7 8 23 15 36
15 13 0 24 5 24 11 0 7 -9 9 -21 6 -18 -5 -20 -2 -15 19 4 14 2 24 -4 24 -5 0
-10 -6 -10 -14z"/>
<path d="M2090 573 c0 -4 9 -17 21 -29 30 -32 15 -50 -21 -24 -39 28 -48 25
-20 -5 27 -28 57 -29 74 -3 8 13 5 23 -14 43 -23 24 -40 32 -40 18z"/>
<path d="M2026 511 c-4 -6 -2 -20 4 -31 12 -22 7 -25 -20 -10 -32 17 -35 -9
-4 -41 31 -33 47 -31 18 3 l-19 22 27 -17 c29 -18 43 -11 27 13 -14 24 -10 36
5 14 8 -10 18 -15 22 -11 4 4 -6 21 -23 38 -19 20 -33 27 -37 20z"/>
<path d="M488 474 c-11 -23 -10 -29 11 -45 21 -17 26 -18 45 -6 41 27 27 77
-20 77 -17 0 -28 -9 -36 -26z m60 4 c14 -14 -2 -48 -24 -48 -20 0 -29 27 -14
45 15 18 22 19 38 3z"/>
<path d="M575 419 c-24 -30 -27 -55 -3 -31 7 7 17 8 30 1 12 -6 18 -6 18 1 0
5 -4 10 -10 10 -5 0 -10 7 -10 15 0 13 4 14 21 5 30 -17 34 -6 5 13 -24 16
-26 15 -51 -14z"/>
<path d="M1947 444 c-3 -3 -1 -17 4 -31 9 -25 9 -25 -15 -9 -16 10 -27 12 -31
6 -8 -12 32 -70 48 -70 8 0 8 3 -1 12 -7 7 -12 17 -12 22 0 6 5 5 12 -2 20
-20 40 -15 28 7 -15 29 -12 38 4 15 8 -10 18 -16 21 -12 4 4 -3 20 -16 37 -25
31 -32 35 -42 25z"/>
<path d="M684 373 c3 -11 -1 -28 -9 -39 -17 -23 -19 -34 -5 -34 6 0 15 11 22
24 6 14 20 26 32 28 18 3 17 6 -12 22 -33 17 -34 17 -28 -1z"/>
<path d="M1840 366 c-28 -35 11 -93 48 -70 35 22 22 84 -18 84 -10 0 -23 -7
-30 -14z m50 -21 c13 -16 6 -35 -14 -35 -18 0 -39 27 -31 40 9 14 31 12 45 -5z"/>
<path d="M730 311 c-11 -22 -16 -42 -11 -45 5 -3 11 1 15 9 9 24 26 17 26 -10
0 -14 5 -25 10 -25 6 0 10 7 10 16 0 8 7 22 15 31 17 17 8 35 -26 54 -15 8
-22 3 -39 -30z m55 -1 c3 -5 -3 -10 -14 -10 -12 0 -21 5 -21 10 0 6 6 10 14
10 8 0 18 -4 21 -10z"/>
<path d="M1754 315 c-9 -22 4 -62 22 -69 20 -8 54 10 54 29 0 8 -4 15 -10 15
-5 0 -10 -7 -10 -15 0 -22 -27 -19 -40 4 -9 19 1 35 22 36 22 0 16 15 -6 15
-14 0 -29 -7 -32 -15z"/>
<path d="M821 266 c-19 -19 -28 -36 -23 -40 6 -3 13 -2 17 3 8 14 35 2 35 -15
0 -8 5 -14 10 -14 12 0 14 87 2 94 -5 3 -23 -10 -41 -28z m29 -12 c0 -8 -5
-12 -10 -9 -6 4 -8 11 -5 16 9 14 15 11 15 -7z"/>
<path d="M1643 273 c-29 -11 -1 -86 30 -81 31 5 43 32 29 62 -11 25 -31 31
-59 19z m45 -41 c4 -26 -22 -31 -32 -6 -10 26 -7 36 12 32 9 -2 18 -13 20 -26z"/>
<path d="M900 234 c-12 -35 -6 -62 6 -30 9 23 22 20 26 -6 2 -13 7 -22 13 -21
12 2 37 73 25 73 -5 0 -12 -10 -16 -22 -7 -21 -8 -21 -16 10 -11 42 -24 41
-38 -4z"/>
<path d="M1600 255 c-1 -5 -1 -19 0 -30 2 -19 1 -19 -17 -2 -28 24 -46 22 -38
-5 4 -13 9 -31 11 -40 8 -29 22 -20 16 10 l-5 27 27 -24 c14 -14 28 -22 31
-19 3 2 -1 24 -9 49 -8 24 -15 40 -16 34z"/>
<path d="M994 226 c-4 -10 3 -24 17 -36 19 -15 21 -19 7 -20 -9 0 -18 6 -21
13 -2 6 -8 9 -12 5 -12 -11 15 -38 37 -38 30 0 35 30 8 52 -12 10 -20 21 -17
25 4 3 14 0 23 -8 15 -12 17 -12 12 1 -7 21 -47 25 -54 6z"/>
<path d="M1477 213 c-15 -53 -16 -73 -7 -73 5 0 10 5 10 11 0 7 11 9 30 6 36
-8 36 -8 9 37 -23 40 -35 45 -42 19z m28 -23 c3 -5 1 -10 -4 -10 -6 0 -11 5
-11 10 0 6 2 10 4 10 3 0 8 -4 11 -10z"/>
<path d="M1070 179 c0 -36 2 -40 13 -27 6 9 21 18 32 20 12 2 20 11 20 23 0
15 -8 21 -32 23 -33 3 -33 3 -33 -39z m42 16 c0 -5 -5 -11 -11 -13 -6 -2 -11
4 -11 13 0 9 5 15 11 13 6 -2 11 -8 11 -13z"/>
<path d="M1158 185 c-10 -22 -9 -29 10 -48 17 -17 26 -19 39 -11 46 29 40 76
-10 82 -21 3 -30 -3 -39 -23z m57 -15 c0 -29 -32 -41 -41 -16 -9 24 4 48 23
44 12 -2 18 -12 18 -28z"/>
<path d="M1261 163 c0 -42 1 -45 10 -23 l10 25 19 -25 c10 -14 22 -21 26 -17
4 4 2 13 -4 19 -8 8 -8 15 -2 23 17 21 0 45 -31 45 -28 0 -29 -2 -28 -47z m44
17 c-3 -5 -13 -10 -21 -10 -8 0 -14 5 -14 10 0 6 9 10 21 10 11 0 17 -4 14
-10z"/>
<path d="M1353 203 c12 -3 17 -15 17 -39 0 -19 5 -34 10 -34 6 0 10 15 10 34
0 19 6 37 13 39 6 3 -6 5 -28 5 -22 0 -32 -2 -22 -5z"/>
</g>
</svg>
